<svg width="77" height="82" viewBox="0 0 77 82" fill="none" xmlns="http://www.w3.org/2000/svg">
<path d="M64.0149 68.5607C66.9858 64.0731 68.6948 58.8689 68.9628 53.4937C69.2308 48.1184 68.0478 42.77 65.5379 38.0092C63.0279 33.2484 59.2835 29.2504 54.6971 26.4344C50.1107 23.6184 44.8512 22.088 39.4699 22.0037C34.0886 21.9194 28.7838 23.2843 24.1114 25.9552C19.439 28.6262 15.5712 32.5049 12.9134 37.1848C10.2556 41.8647 8.90567 47.1733 9.00512 52.5544C9.10457 57.9354 10.6497 63.1905 13.4787 67.769L39 52L64.0149 68.5607Z" fill="#7CD8C7"/>
<g filter="url(#filter0_d)">
<path d="M21.0038 16.012H15.1518V13.768C15.1518 13.5333 15.0638 13.328 14.8878 13.152C14.7411 12.976 14.5505 12.888 14.3158 12.888H11.8958C11.6611 12.888 11.4558 12.976 11.2798 13.152C11.1331 13.328 11.0598 13.5333 11.0598 13.768V18.828C11.0598 19.0627 11.1331 19.268 11.2798 19.444C11.4558 19.62 11.6611 19.708 11.8958 19.708H15.8558C19.4931 19.7667 21.3118 21.7027 21.3118 25.516V31.632C21.3118 35.504 19.4931 37.44 15.8558 37.44H10.6638C7.02648 37.44 5.20781 35.504 5.20781 31.632V28.684H11.0598V31.852C11.0598 32.0867 11.1331 32.292 11.2798 32.468C11.4558 32.644 11.6611 32.732 11.8958 32.732H14.6238C14.8585 32.732 15.0491 32.644 15.1958 32.468C15.3718 32.292 15.4598 32.0867 15.4598 31.852V26.264C15.4598 26.0293 15.3718 25.824 15.1958 25.648C15.0491 25.472 14.8585 25.384 14.6238 25.384H10.6638C7.02648 25.384 5.20781 23.448 5.20781 19.576V13.9C5.20781 10.028 7.02648 8.092 10.6638 8.092H15.5478C19.1851 8.092 21.0038 10.028 21.0038 13.9V16.012ZM36.4482 8.532C40.0855 8.532 41.9042 10.468 41.9042 14.34V20.016C41.9042 23.888 40.0855 25.824 36.4482 25.824H31.4762V37H25.3162V8.532H36.4482ZM35.7442 20.72V13.636C35.7442 13.4013 35.6562 13.196 35.4802 13.02C35.3335 12.844 35.1428 12.756 34.9082 12.756H31.4762V21.6H34.9082C35.1428 21.6 35.3335 21.512 35.4802 21.336C35.6562 21.16 35.7442 20.9547 35.7442 20.72ZM51.1569 8.532V37H44.9969V8.532H51.1569ZM72.0631 37H65.9031V13.372C65.9031 13.1373 65.8151 12.932 65.6391 12.756C65.4924 12.58 65.3017 12.492 65.0671 12.492H62.6911C62.4564 12.492 62.2511 12.58 62.0751 12.756C61.9284 12.932 61.8551 13.1373 61.8551 13.372V37H55.6951V13.9C55.6951 10.028 57.5137 8.092 61.1511 8.092H66.6071C70.2444 8.092 72.0631 10.028 72.0631 13.9V37Z" fill="#F2F2F2"/>
</g>
<defs>
<filter id="filter0_d" x="1.20781" y="8.09201" width="74.8553" height="37.348" filterUnits="userSpaceOnUse" color-interpolation-filters="sRGB">
<feFlood flood-opacity="0" result="BackgroundImageFix"/>
<feColorMatrix in="SourceAlpha" type="matrix" values="0 0 0 0 0 0 0 0 0 0 0 0 0 0 0 0 0 0 127 0"/>
<feOffset dy="4"/>
<feGaussianBlur stdDeviation="2"/>
<feColorMatrix type="matrix" values="0 0 0 0 0 0 0 0 0 0 0 0 0 0 0 0 0 0 0.25 0"/>
<feBlend mode="normal" in2="BackgroundImageFix" result="effect1_dropShadow"/>
<feBlend mode="normal" in="SourceGraphic" in2="effect1_dropShadow" result="shape"/>
</filter>
</defs>
</svg>
